<?xml version="1.0" encoding="UTF-8" standalone="no"?>
<svg
   xmlns:dc="http://purl.org/dc/elements/1.1/"
   xmlns:cc="http://creativecommons.org/ns#"
   xmlns:rdf="http://www.w3.org/1999/02/22-rdf-syntax-ns#"
   xmlns:svg="http://www.w3.org/2000/svg"
   xmlns="http://www.w3.org/2000/svg"
   xmlns:sodipodi="http://sodipodi.sourceforge.net/DTD/sodipodi-0.dtd"
   xmlns:inkscape="http://www.inkscape.org/namespaces/inkscape"
   sodipodi:docname="Cube.svg"
   inkscape:version="1.0beta1 (32d4812, 2019-09-19)"
   id="svg996"
   version="1.1"
   viewBox="0 0 48.906651 55.938484"
   height="55.938484mm"
   width="48.906651mm">
  <defs
     id="defs990">
    <inkscape:path-effect
       effect="sketch"
       id="path-effect4282"
       is_visible="true"
       nbiter_approxstrokes="3"
       strokelength="100"
       strokelength_rdm="0.2;1"
       strokeoverlap="0.3"
       strokeoverlap_rdm="0.3;1"
       ends_tolerance="0.1;1"
       parallel_offset="5;1"
       tremble_size="5;1"
       tremble_frequency="1"
       nbtangents="5"
       tgt_places_rdmness="1;1"
       tgtscale="10"
       tgtlength="20"
       tgtlength_rdm="0.3;1" />
    <inkscape:path-effect
       effect="sketch"
       id="path-effect4282-0"
       is_visible="true"
       nbiter_approxstrokes="5"
       strokelength="100"
       strokelength_rdm="0.2;1"
       strokeoverlap="0.3"
       strokeoverlap_rdm="0.3;1"
       ends_tolerance="0.1;1"
       parallel_offset="5;1"
       tremble_size="5;1"
       tremble_frequency="1"
       nbtangents="5"
       tgt_places_rdmness="1;1"
       tgtscale="10"
       tgtlength="20"
       tgtlength_rdm="0.3;1" />
    <inkscape:path-effect
       tgtlength_rdm="0.3;1"
       tgtlength="20"
       tgtscale="10"
       tgt_places_rdmness="1;1"
       nbtangents="5"
       tremble_frequency="1"
       tremble_size="5;1"
       parallel_offset="5;1"
       ends_tolerance="0.1;1"
       strokeoverlap_rdm="0.3;1"
       strokeoverlap="0.3"
       strokelength_rdm="0.2;1"
       strokelength="100"
       nbiter_approxstrokes="5"
       is_visible="true"
       id="path-effect4333"
       effect="sketch" />
    <inkscape:path-effect
       effect="sketch"
       id="path-effect4569"
       is_visible="true"
       nbiter_approxstrokes="5"
       strokelength="100"
       strokelength_rdm="0.7;1"
       strokeoverlap="0.2"
       strokeoverlap_rdm="0.3;1"
       ends_tolerance="0.1;1"
       parallel_offset="5;1"
       tremble_size="5;1"
       tremble_frequency="1"
       nbtangents="0"
       tgt_places_rdmness="1;1"
       tgtscale="10"
       tgtlength="100"
       tgtlength_rdm="0.3;1" />
  </defs>
  <sodipodi:namedview
     inkscape:window-maximized="0"
     inkscape:window-y="743"
     inkscape:window-x="51"
     inkscape:window-height="1209"
     inkscape:window-width="1600"
     fit-margin-bottom="0"
     fit-margin-right="0"
     fit-margin-left="0"
     fit-margin-top="0"
     showgrid="false"
     inkscape:document-rotation="0"
     inkscape:current-layer="layer1"
     inkscape:document-units="mm"
     inkscape:cy="242.85338"
     inkscape:cx="203.13631"
     inkscape:zoom="0.7"
     inkscape:pageshadow="2"
     inkscape:pageopacity="0.0"
     borderopacity="1.0"
     bordercolor="#666666"
     pagecolor="#ffffff"
     id="base" />
  <metadata
     id="metadata993">
    <rdf:RDF>
      <cc:Work
         rdf:about="">
        <dc:format>image/svg+xml</dc:format>
        <dc:type
           rdf:resource="http://purl.org/dc/dcmitype/StillImage" />
        <dc:title></dc:title>
      </cc:Work>
    </rdf:RDF>
  </metadata>
  <g
     transform="translate(-14.100245,-83.91171)"
     id="layer1"
     inkscape:groupmode="layer"
     inkscape:label="Layer 1">
    <g
       transform="matrix(0.23559818,0,0,0.23559818,22.005702,44.153839)"
       id="g964">
      <g
         id="g941"
         transform="matrix(1.1978965,0,0,1.1978965,-89.66457,-35.809068)">
        <g
           id="g5384">
          <g
             id="g3957"
             transform="matrix(-0.44032993,0.7626738,-0.7626738,-0.44032993,720.11065,329.17914)">
            <path
               style="opacity:0.85;fill:#c41e3a;fill-opacity:1;stroke:none"
               d="m 276.17347,503.14958 -92.05782,53.14961 92.05782,53.14961 92.05781,-53.14961 z"
               id="top"
               inkscape:connector-curvature="0"
               inkscape:label="#path3019" />
            <path
               style="opacity:0.5;fill:#c41e3a;fill-opacity:1;stroke:none"
               d="M 184.11565,556.29919 V 662.5984 l 92.05782,53.14961 V 609.4488 Z"
               id="front_left"
               inkscape:connector-curvature="0"
               inkscape:label="#path3021" />
            <path
               sodipodi:type="inkscape:offset"
               inkscape:radius="0"
               inkscape:original="M 368.21875 556.3125 L 276.1875 609.4375 L 276.1875 715.75 L 368.21875 662.59375 L 368.21875 556.3125 z "
               style="fill:#c41e3a;fill-opacity:1;stroke:none"
               id="path3816"
               d="m 368.21875,556.3125 -92.03125,53.125 V 715.75 l 92.03125,-53.15625 z"
               transform="translate(-0.01404446,0.01129679)" />
            <path
               style="fill:none;stroke:#000000;stroke-width:2;stroke-linecap:butt;stroke-miterlimit:4;stroke-dasharray:none;stroke-dashoffset:0;stroke-opacity:1"
               d="m 276.17347,503.15622 -92.05782,53.14961 v 106.29921 l 92.05782,53.14961 92.05781,-53.14961 V 556.30583 Z"
               id="path5217"
               inkscape:connector-curvature="0" />
          </g>
          <path
             inkscape:original-d="m 214.71063,317.97089 v -93.61346 l -81.07162,-46.80672 -81.071628,46.80673 7e-6,93.61344 81.071621,46.80672 z"
             inkscape:path-effect="#path-effect4282"
             inkscape:connector-curvature="0"
             id="path5217-1"
             d="m 217.75795,319.33764 c 1.27879,-29.95768 -0.0231,-58.21788 -1.02505,-87.0264 m -0.92872,10.74178 c -0.14014,-7.15738 -0.17796,-14.24957 -0.13269,-21.29212 -17.20741,-10.01852 -33.74275,-19.63559 -50.04771,-29.20906 m 8.18754,14.26537 c -15.46933,-8.79796 -30.10907,-17.66542 -44.4886,-26.82313 -9.02036,4.92649 -17.93832,9.73876 -26.89443,14.38232 m 21.4511,-6.00628 c -21.92444,14.26064 -45.415974,27.46837 -68.093728,41.35096 0.0965,5.62062 0.227627,11.26996 0.414291,16.96318 m 1.363961,-31.01472 c -3.299715,1.75059 -6.547992,3.51137 -9.748819,5.27897 -0.08401,25.7405 2.246029,51.82745 5.54304,77.03538 m -1.142624,-16.19222 c -0.392035,12.90739 -0.226971,25.18379 0.328994,36.9808 14.173857,6.84559 28.948968,12.9538 44.008295,18.61379 M 71.783533,332.6912 c 18.487217,11.05559 38.579887,21.89043 59.417237,32.51123 5.29493,-2.91544 10.63795,-5.84471 16.01492,-8.78768 m -12.03413,3.76062 c 0.52659,0.29127 1.05228,0.58332 1.57708,0.87615 23.07634,-13.24879 44.43846,-25.00199 65.04687,-35.7166 m -14.91892,8.77865 c 9.56328,-5.15415 18.88985,-10.57432 28.07058,-16.19971 -0.18335,-21.40651 -0.92104,-43.59301 -1.53988,-66.10894 m 3.28533,52.26008 c -0.55871,-26.77304 0.68349,-54.77633 2.51161,-81.22789 -2.61226,-1.44318 -5.2166,-2.8654 -7.81494,-4.2623 m 3.38996,21.57069 c 0.2602,-5.21229 0.43889,-10.455 0.55554,-15.72256 -20.32812,-11.94695 -41.94326,-24.40913 -63.00767,-36.85795 m 13.92568,5.94145 c -11.75284,-6.80485 -24.11692,-14.116 -36.71444,-21.72569 -14.70099,7.87853 -29.71988,15.3505 -44.456238,22.74605 m 20.752138,-4.64201 c -18.924393,11.6404 -38.44433,24.50565 -57.334623,38.90853 0.269166,7.72644 0.594676,15.59048 1.009327,23.60049 m 5.099505,-29.61373 c -0.550889,0.33434 -1.101395,0.6685 -1.651539,1.00251 -0.994386,28.1346 -1.287754,55.97817 -2.866408,86.0658 m 2.818486,-25.24507 c 0.06095,10.13451 -0.04389,20.44205 -0.295042,30.84026 15.367219,9.08934 30.285415,18.45696 44.859216,27.66018 m -16.521354,-7.48087 c 16.771842,10.42993 34.405162,20.56528 52.554742,30.98668 10.78473,-5.54268 21.75174,-10.98435 32.82862,-16.2032 m -23.2305,11.35933 c 24.90935,-13.48259 48.9238,-29.48756 73.22944,-46.79304 -0.009,-5.13637 -0.0101,-10.3076 0.002,-15.50834 m -1.59626,6.59265 c 0.0888,-27.70268 0.46083,-55.24771 1.33276,-81.15709 -3.76862,-1.86324 -7.52461,-3.68513 -11.26709,-5.45975 m 9.38748,15.58947 c 0.0283,-5.11262 0.0945,-10.2609 0.20088,-15.44145 -20.4723,-12.2096 -40.05941,-25.13043 -58.53224,-38.41292 m 6.38215,20.33921 c -11.84095,-7.43239 -23.73032,-14.71968 -35.40234,-22.03562 -13.87294,8.21921 -27.438839,16.39797 -40.251468,24.24458 m 22.245478,-11.99147 c -19.369221,11.09067 -39.276088,22.01023 -59.301156,32.37916 -0.146571,8.9869 -0.313368,17.87958 -0.470701,26.65119 m 3.454558,-26.07226 c -0.893003,29.39051 0.631077,62.26331 2.301795,94.66121 1.821253,1.08494 3.643107,2.16793 5.464966,3.24793 m -8.23519,-24.57691 c 0.02103,7.55587 0.03501,15.01366 0.0449,22.35202 21.223392,11.11267 42.405423,21.01626 63.641303,29.02252 m -29.79366,-5.81282 c 13.455885,7.76954 27.37982,15.67489 41.57133,23.60215 15.49277,-8.67519 31.30444,-17.32427 47.17416,-26.09544 m -24.53653,5.59411 c 21.28841,-10.86722 41.3986,-21.94039 61.37769,-31.64402 -0.18728,-6.59635 -0.3868,-13.0649 -0.56869,-19.36071 m -158.402723,-1.84003 3e-6,32.17187 m 121.21268,15.59026 24.85763,-14.35156 m -70.94756,40.96158 25.83191,-14.91406 m 61.18858,-108.46234 v -38.03125 m -162.143249,4.9879 3e-6,33.90625"
             style="fill:none;stroke:#000000;stroke-width:1.76132;stroke-linecap:butt;stroke-miterlimit:4;stroke-dasharray:none;stroke-dashoffset:0;stroke-opacity:1" />
          <path
             sodipodi:nodetypes="ccc"
             inkscape:original-d="m 60.923835,249.65096 5e-6,67.76348 58.68491,33.88175"
             inkscape:path-effect="#path-effect4282-0"
             inkscape:connector-curvature="0"
             id="path5217-1-1"
             d="m 63.971152,264.06479 c 0.90064,19.72783 0.521194,40.29764 -0.131988,60.92488 7.148501,4.37536 14.248743,8.76084 21.375219,13.09837 M 66.115721,317.35857 c 15.122089,8.63612 30.906018,17.6912 47.033719,26.91273 M 56.899965,261.87745 c -0.856501,19.42258 -0.593393,38.75136 -0.10336,57.64024 7.055325,3.60998 14.147098,7.14931 21.217857,10.5957 m -10.7278,-6.00627 c 18.520315,10.83908 36.131758,21.07042 53.886258,31.45171 M 56.353222,251.56488 c -0.627955,20.38097 0.400276,41.08993 2.356127,61.5099 8.687357,4.32057 17.548835,8.58689 26.525184,12.74879 m -20.928691,-4.76872 c 15.482568,9.79436 32.18013,18.21042 49.558168,25.73904 M 56.470418,259.14325 c -0.578919,19.78296 0.128317,39.38907 1.504493,58.82314 7.42228,3.82964 14.952211,7.63159 22.549947,11.40617 M 68.490731,316.29037 c 15.560132,8.60674 30.338016,17.89226 44.622389,27.71994 M 60.924105,252.34656 c 0.585,22.12223 0.196816,43.15073 -0.407156,63.5924 8.27579,4.35746 16.506973,8.59362 24.764734,12.75611 m -19.402385,-14.0614 c 17.298522,11.16443 35.555522,21.67266 54.296072,32.60625 m -55.301796,-27.5451 27.86166,16.08594 m 7.567566,4.36913 24.85763,14.35156 m -36.348193,-20.98564 25.831913,14.91407 m -53.720315,-95.55965 3e-6,38.03125 m -13.764875,18.5658 29.363673,16.95313"
             style="fill:none;stroke:#000000;stroke-width:1.27496;stroke-linecap:butt;stroke-miterlimit:4;stroke-dasharray:none;stroke-dashoffset:0;stroke-opacity:1" />
          <path
             style="fill:none;stroke:#000000;stroke-width:0.939121;stroke-linecap:butt;stroke-miterlimit:4;stroke-dasharray:none;stroke-dashoffset:0;stroke-opacity:1"
             d="m 71.689958,274.56376 c 0.638131,13.97776 0.633639,28.37822 0.344476,42.9223 12.285173,7.34142 24.283409,14.8276 36.356946,22.17616 M 69.736193,267.14205 c -0.268757,13.27327 -0.161219,26.78636 0.187142,40.42949 12.090878,6.92253 24.424634,13.97621 36.864055,21.04989 M 64.618771,272.37642 c -0.598633,13.57499 -0.650335,27.10416 -0.459895,40.46934 12.202899,6.48585 24.649961,12.80634 37.032584,18.84182 M 70.518098,265.89255 c 0.735178,16.63146 0.902298,32.88125 1.020977,49.12645 14.104133,8.22895 28.159478,16.45328 42.691235,25.05412 M 64.072028,262.06385 c -0.449145,14.5775 -0.05101,29.3228 0.927807,44.01014 13.975294,7.24246 28.53575,14.42651 43.411695,21.32376 m -40.529071,-17.77281 27.86166,16.08594 m -1.369206,-0.79052 24.857637,14.35157 m -33.449784,-19.31224 25.831914,14.91406 m -42.972039,-77.36144 3e-6,38.03125 m -14.006412,6.43366 29.363672,16.95313"
             id="path4331"
             inkscape:connector-curvature="0"
             inkscape:path-effect="#path-effect4333"
             inkscape:original-d="m 68.642641,260.14993 4e-6,49.9139 43.226715,24.95696"
             sodipodi:nodetypes="ccc" />
        </g>
      </g>
      <path
         sodipodi:nodetypes="ccccc"
         inkscape:connector-curvature="0"
         inkscape:original-d="m 70.485296,289.36093 -97.115415,-56.06959 m 97.115414,168.20883 3e-6,-112.13923 98.694572,-55.76324"
         inkscape:path-effect="#path-effect4569"
         d="M 67.883063,293.98945 C 52.996731,284.32526 37.104579,275.32725 20.906415,266.44197 m 5.536024,-5.56259 C 16.371867,255.00495 6.570607,249.29908 -3.0447948,243.69775 m -0.9245892,8.74978 c -6.486376,-3.68904 -12.82919,-7.39283 -19.068943,-11.12603 m 88.058074,47.903 C 40.815533,275.4628 14.700196,260.418 -10.119631,246.4144 m 6.6132882,-0.29801 C -12.568086,240.81124 -21.244905,235.58556 -29.616656,230.367 m 95.352205,57.93947 C 52.183306,281.17879 39.436558,273.13639 27.207051,264.44519 m 1.194073,4.24431 C 16.184004,261.87188 4.5808152,254.97096 -6.6131016,247.98721 m 12.396645,-1.47466 C -2.8279244,241.32212 -11.7013,236.35909 -20.781382,231.59766 m 84.501037,53.93528 C 40.874224,272.42974 16.497384,257.6087 -7.9142244,242.06525 m 15.9254582,5.58448 c -8.6415676,-4.4276 -17.0628881,-9.00702 -25.3173578,-13.61865 M 61.97123,284.32196 C 46.060138,274.86378 29.046324,264.99527 11.896666,254.99153 m 3.019309,-0.59317 C 1.066621,246.37963 -13.628558,237.65925 -28.555844,228.57505 m 92.947768,169.72199 c 0.779364,-20.37973 1.075273,-39.76858 1.783143,-57.93485 m 4.778597,6.06635 c -0.4874,-12.11262 -0.80811,-24.30225 -1.172837,-36.29978 m 1.056091,2.26763 c 0.04903,-8.6108 -0.01,-17.11018 -0.166292,-25.54059 7.358238,-4.29867 14.613138,-8.52412 21.776394,-12.72278 m -7.796362,6.92084 c 22.936332,-12.45857 47.465682,-25.46133 72.721182,-37.54912 m -12.5726,6.30878 c 7.05326,-3.73387 14.03429,-7.66571 20.97047,-11.76975 M 70.524389,394.7425 c 0.0994,-31.02647 0.553783,-61.85531 1.668506,-90.40979 m -2.215356,12.38128 c 0.05872,-10.623 0.280446,-21.40019 0.685888,-32.30102 7.958106,-4.45761 16.038908,-8.99778 24.253715,-13.60386 m -18.273653,12.96644 c 23.228097,-13.20264 46.297861,-25.93271 70.771941,-39.21118 m -10.17353,6.97887 c 8.27166,-4.71305 16.45222,-9.45339 24.57087,-14.24904 M 70.445944,392.12458 c -0.918215,-33.34745 0.718597,-63.01276 2.443531,-93.29909 m -2.911963,20.31011 c 0.02428,-9.03953 0.03925,-18.20993 0.04939,-27.54411 17.739461,-11.04266 35.453605,-22.94462 53.196445,-36.10122 m -20.49982,14.63113 c 17.59558,-10.37332 35.98445,-20.51693 54.72264,-30.6814 M 67.71215,391.77394 c 0.741227,-24.22492 0.149181,-48.68512 -0.517342,-71.4756 m 3.48561,17.47925 c -0.210569,-11.01973 -0.37606,-21.93879 -0.562202,-32.76556 m 2.281289,8.44803 c 0.0903,-6.43719 0.162767,-12.81341 0.227171,-19.14803 15.268077,-8.76234 30.474164,-17.20472 45.826834,-25.74021 m -13.31757,6.72917 c 11.52632,-6.53777 23.35126,-13.35759 35.20907,-20.32872 m -6.72933,4.03431 c 10.89906,-5.91153 21.9718,-12.31908 33.21721,-19.12139 M 65.172576,395.91381 C 64.45778,362.1591 65.765643,331.559 67.014229,301.0596 m 0.111564,27.43624 c -0.141004,-10.46108 -0.072,-21.20002 0.160634,-32.06062 7.527143,-4.08386 15.15151,-8.24001 22.851853,-12.39693 m 2.437882,-3.84186 C 110.22276,270.5173 127.56558,260.73959 144.84727,251.0495 m -12.1516,8.08644 c 12.32843,-6.82068 24.1535,-13.39962 35.62391,-19.747"
         style="fill:none;stroke:#000000;stroke-width:2.11017;stroke-linecap:butt;stroke-linejoin:miter;stroke-miterlimit:4;stroke-dasharray:none;stroke-opacity:1"
         id="path4545" />
    </g>
  </g>
</svg>
