<?xml version="1.0" encoding="UTF-8" standalone="no"?>
<svg
   xmlns:dc="http://purl.org/dc/elements/1.1/"
   xmlns:cc="http://creativecommons.org/ns#"
   xmlns:rdf="http://www.w3.org/1999/02/22-rdf-syntax-ns#"
   xmlns:svg="http://www.w3.org/2000/svg"
   xmlns="http://www.w3.org/2000/svg"
   xmlns:sodipodi="http://sodipodi.sourceforge.net/DTD/sodipodi-0.dtd"
   xmlns:inkscape="http://www.inkscape.org/namespaces/inkscape"
   sodipodi:docname="Sphere.svg"
   inkscape:version="1.0beta1 (32d4812, 2019-09-19)"
   id="svg1074"
   version="1.1"
   viewBox="0 0 47.610729 47.655853"
   height="47.655853mm"
   width="47.610729mm">
  <defs
     id="defs1068">
    <inkscape:path-effect
       effect="sketch"
       id="path-effect3845"
       is_visible="true"
       nbiter_approxstrokes="5"
       strokelength="100"
       strokelength_rdm="0.3;1"
       strokeoverlap="0.3"
       strokeoverlap_rdm="0.3;1"
       ends_tolerance="0.1;1"
       parallel_offset="5;1"
       tremble_size="5;1"
       tremble_frequency="1"
       nbtangents="0"
       tgt_places_rdmness="1;1"
       tgtscale="10"
       tgtlength="100"
       tgtlength_rdm="0.3;1" />
  </defs>
  <sodipodi:namedview
     inkscape:window-maximized="0"
     inkscape:window-y="743"
     inkscape:window-x="51"
     inkscape:window-height="1209"
     inkscape:window-width="1600"
     fit-margin-bottom="0"
     fit-margin-right="0"
     fit-margin-left="0"
     fit-margin-top="0"
     showgrid="false"
     inkscape:document-rotation="0"
     inkscape:current-layer="layer1"
     inkscape:document-units="mm"
     inkscape:cy="578.62973"
     inkscape:cx="658.54447"
     inkscape:zoom="0.35"
     inkscape:pageshadow="2"
     inkscape:pageopacity="0.0"
     borderopacity="1.0"
     bordercolor="#666666"
     pagecolor="#ffffff"
     id="base" />
  <metadata
     id="metadata1071">
    <rdf:RDF>
      <cc:Work
         rdf:about="">
        <dc:format>image/svg+xml</dc:format>
        <dc:type
           rdf:resource="http://purl.org/dc/dcmitype/StillImage" />
        <dc:title></dc:title>
      </cc:Work>
    </rdf:RDF>
  </metadata>
  <g
     transform="translate(68.406558,4.9291165)"
     id="layer1"
     inkscape:groupmode="layer"
     inkscape:label="Layer 1">
    <g
       id="g5376"
       transform="matrix(0.28222223,0,0,0.28222223,-138.6175,-58.593012)">
      <ellipse
         id="path4102"
         style="color:#000000;display:inline;overflow:visible;visibility:visible;fill:#50c878;fill-opacity:1;stroke:#50c878;stroke-width:2.33198;stroke-linecap:butt;stroke-linejoin:miter;stroke-miterlimit:4;stroke-dasharray:none;stroke-dashoffset:0;stroke-opacity:1;marker:none;enable-background:accumulate"
         cx="330.70795"
         cy="274.12573"
         rx="79.084114"
         ry="79.166389" />
      <g
         transform="translate(3.5714286,-105.71429)"
         id="g5201">
        <path
           style="fill:none;fill-opacity:1;stroke:#000000;stroke-width:1.25;stroke-linecap:butt;stroke-linejoin:miter;stroke-miterlimit:4;stroke-dasharray:none;stroke-opacity:1"
           d="m 367.18056,444.44283 c -15.88828,12.28657 -38.44863,16.18541 -57.73218,9.85339 m 9.57408,3.10002 c -16.02476,-0.42381 -30.35744,-7.04646 -41.19809,-18.72708 -2.25588,-2.43069 -4.3453,-5.06416 -6.25771,-7.88158 m 13.17599,12.7818 c -1.18816,-0.84975 -2.34761,-1.75748 -3.47621,-2.72057 -11.58757,-9.88828 -19.5401,-25.24618 -22.54366,-42.77826 m 96.0102,50.82427 c -14.33347,8.30921 -30.68727,10.59556 -45.68513,8.20391 m 8.47478,-1.93756 c -14.22538,-1.66424 -27.57093,-7.04014 -38.5174,-15.72152 -2.60619,-2.06691 -5.05448,-4.30415 -7.32966,-6.6968 m 10.36853,9.48826 c -0.57156,-0.453 -1.13431,-0.91757 -1.68791,-1.39342 m 95.63312,-5.54332 c -11.69726,12.27734 -28.51469,19.33195 -47.53571,19.00638 m 18.27128,2.31927 c -21.17598,7.9179 -43.75613,4.29707 -61.18692,-9.46251 m 13.21449,4.21426 c -7.90182,-2.77731 -15.34892,-7.0237 -21.68522,-12.45668 -7.80034,-6.68829 -13.696,-14.9897 -16.70974,-24.03629 m 93.95268,32.8163 c -19.09669,9.4717 -40.56442,9.54503 -58.84803,0.48332 m 15.72337,0.79527 c -11.08085,-2.63496 -21.52616,-7.63947 -29.95685,-14.77155 -5.55205,-4.69686 -10.11108,-10.2191 -13.35293,-16.36451 m 113.60578,15.64851 c -7.4356,8.43788 -16.80111,14.8093 -27.31354,18.58626 m 7.19788,-5.71279 c -14.72454,9.27088 -32.27145,11.31642 -49.03879,7.31546 m 9.37141,3.10365 c -15.27813,-0.58008 -29.01343,-6.54014 -39.71395,-16.45769 -0.83773,-0.77642 -1.65497,-1.57536 -2.45121,-2.39575 m -16.7165,-25.90316 c -6.69542,-20.96455 -2.35533,-43.8728 11.86208,-61.30373 m -13.7026,17.9042 c 2.86956,-7.57675 7.08558,-14.51932 12.47025,-20.61997"
           id="path3817-7"
           inkscape:connector-curvature="0"
           sodipodi:nodetypes="cccsccsccccsccccccccsccccscccccccccccc" />
        <path
           style="fill:none;fill-opacity:1;stroke:#000000;stroke-width:1.35914;stroke-linecap:butt;stroke-linejoin:miter;stroke-miterlimit:4;stroke-dasharray:none;stroke-opacity:1"
           d="m 321.25966,452.74631 c -13.35932,-0.35331 -25.30801,-5.87441 -34.34552,-15.61216 -1.88065,-2.0264 -3.62253,-4.22184 -5.21685,-6.57063 m 10.98441,10.65578 c -0.99054,-0.7084 -1.95714,-1.46515 -2.89801,-2.26805 -9.66018,-8.24354 -16.28995,-21.04693 -18.79393,-35.66286 m 80.04061,42.37055 c -11.94935,6.92713 -25.58298,8.83318 -38.08622,6.83934 m 7.06515,-1.61527 c -11.85923,-1.38743 -22.98499,-5.86914 -32.11071,-13.10653 -2.1727,-1.72312 -4.21376,-3.58823 -6.1105,-5.58291 m 8.64391,7.91005 c -0.47649,-0.37764 -0.94564,-0.76494 -1.40716,-1.16165 m 55.32944,13.15722 c -17.65374,6.6009 -36.47807,3.58234 -51.00957,-7.88858 m 11.0165,3.51329 c -6.5875,-2.31535 -12.7959,-5.85543 -18.07827,-10.38473 -6.50289,-5.57582 -11.41791,-12.49643 -13.93038,-20.03828 m 78.32533,27.35789 c -15.92029,7.89625 -33.81725,7.95739 -49.0597,0.40293 m 13.10806,0.66298 c -9.23774,-2.19668 -17.94566,-6.36877 -24.97406,-12.31455 -4.62856,-3.91563 -8.42928,-8.51934 -11.13191,-13.64257 m 77.9397,23.77785 c -12.27537,7.72884 -26.90366,9.43414 -40.88205,6.09866 m 7.81264,2.58742 c -12.73689,-0.48359 -24.18757,-5.4523 -33.10824,-13.72024 -0.69839,-0.64728 -1.3797,-1.31333 -2.0435,-1.99727"
           id="path3817-7-9"
           inkscape:connector-curvature="0"
           sodipodi:nodetypes="csccsccccsccccccsccccscccccc" />
        <path
           style="fill:none;fill-opacity:1;stroke:#000000;stroke-width:1.35914;stroke-linecap:butt;stroke-linejoin:miter;stroke-miterlimit:4;stroke-dasharray:none;stroke-opacity:1"
           d="m 325.81203,446.396 c -13.35932,-0.35331 -25.30802,-5.8744 -34.34552,-15.61216 -1.88065,-2.02639 -3.62253,-4.22183 -5.21686,-6.57062 m 10.98441,10.65577 c -0.99054,-0.7084 -1.95713,-1.46514 -2.898,-2.26805 -9.66019,-8.24354 -16.28995,-21.04692 -18.79393,-35.66286 m 80.04061,42.37056 c -11.94935,6.92712 -25.58299,8.83318 -38.08622,6.83933 m 7.06515,-1.61527 c -11.85924,-1.38743 -22.98499,-5.86914 -32.11071,-13.10653 -2.17271,-1.72311 -4.21376,-3.58823 -6.1105,-5.5829 m 8.64391,7.91005 c -0.4765,-0.37765 -0.94565,-0.76495 -1.40717,-1.16165 m 55.32944,13.15722 c -17.65373,6.6009 -36.47807,3.58233 -51.00956,-7.88859 m 11.01649,3.51329 c -6.58749,-2.31535 -12.79589,-5.85543 -18.07827,-10.38472 -6.50289,-5.57582 -11.4179,-12.49643 -13.93037,-20.03829 m 78.32533,27.3579 c -15.92029,7.89624 -33.81726,7.95738 -49.05971,0.40292 m 13.10807,0.66299 c -9.23775,-2.19668 -17.94567,-6.36877 -24.97406,-12.31456 -4.62857,-3.91562 -8.42929,-8.51933 -11.13191,-13.64257 m 77.9397,23.77786 c -12.27537,7.72884 -26.90367,9.43413 -40.88205,6.09866 m 7.81264,2.58741 c -12.73689,-0.48359 -24.18757,-5.4523 -33.10824,-13.72024 -0.69839,-0.64727 -1.3797,-1.31332 -2.0435,-1.99726"
           id="path3817-7-9-3"
           inkscape:connector-curvature="0"
           sodipodi:nodetypes="csccsccccsccccccsccccscccccc" />
      </g>
      <path
         d="m 417.83835,149.27154 c -0.54111,26.18718 -14.10073,52.07043 -35.52294,70.11659 m 12.1763,-24.25126 c -15.3829,18.65136 -35.81702,32.09831 -58.38069,37.45826 m 8.35974,1.49269 c -11.81499,3.96612 -23.86718,5.86306 -35.80225,5.50849 -12.76923,-0.37936 -25.18781,-3.33093 -36.80125,-8.82567 m 21.52998,7.64074 C 263.32395,232.61411 236.12392,210.728 223.93372,182.27984 m 6.1024,14.0801 c -15.66641,-18.76424 -22.53405,-41.84006 -20.09423,-66.01788 0.50772,-5.0313 1.41527,-10.07652 2.71172,-15.10456 m -1.3461,27.96004 c -0.22519,-2.21607 -0.35507,-4.45772 -0.39052,-6.71988 -0.364,-23.22601 9.19466,-47.805315 26.22927,-68.912867 M 220.03088,86.043837 C 231.62812,64.109661 252.9953,47.230853 278.96175,38.656094 m -10.5075,2.655895 c 15.0571,-8.001403 31.14067,-11.66683 47.00061,-10.725142 6.47698,0.384572 12.86315,1.535032 19.06743,3.434725 m -15.68544,-0.711394 c 32.05317,2.312246 59.57087,16.643666 76.57816,39.898878 m -13.8373,-20.00832 c 21.93379,20.742453 36.16832,48.814394 38.14933,80.343474 0.002,0.002 0.004,0.004 0.007,0.006 0.0733,1.16554 0.12962,2.33356 0.16898,3.5038 m -7.0735,-23.55056 c 1.84713,7.09716 2.80378,14.27947 2.9059,21.43743 4.7e-4,3e-5 9.5e-4,6e-5 0.001,8e-5 0.28802,20.37501 -6.34506,39.97179 -18.01124,56.48164 m 12.15267,-52.74558 c -1.36183,31.11741 -18.95341,57.30473 -44.67881,72.58373 m 17.21486,-8.10105 c -18.00923,21.24454 -44.60146,35.23216 -71.40282,40.10153 m 24.62022,-9.67178 c -7.4903,1.95211 -15.07521,3.0881 -22.66778,3.44853 -17.72775,0.84154 -35.04643,-2.5604 -50.97815,-9.10745 m 17.09719,0.58834 c -24.98074,-9.7815 -46.36449,-27.87899 -59.6249,-51.77642 m 10.3152,18.78979 c -13.15751,-16.83475 -19.42364,-37.70998 -18.18152,-58.68821 0.52243,-8.82335 2.36643,-17.53906 5.47002,-25.83872 m -4.12769,23.41017 c 1.31533,-32.48315 17.40894,-65.655107 44.88757,-88.438383 m -22.61186,20.10635 c 19.40813,-22.351838 48.43636,-34.900409 79.49639,-32.124238 3.12205,0.279051 6.24853,0.712098 9.37041,1.300769 M 293.0852,30.180989 c 6.49982,-1.210716 13.16787,-1.848981 19.91934,-1.899028 21.52446,-0.159555 43.12102,5.657201 62.29384,16.776972 M 345.8367,44.308051 c 29.0493,11.638835 50.69496,35.81805 62.01708,64.254229 M 399.3013,86.597048 c 8.72949,14.980952 13.11287,31.804292 12.90263,48.635452 -4e-4,-0.001 -8e-4,-0.002 -0.001,-0.003 -0.17195,13.73358 -3.39939,27.14261 -9.39321,39.20852 m 11.79838,-31.65605 c -3.74629,31.66706 -20.77093,63.54308 -47.86109,81.80553 m 19.52324,-16.25293 c -19.08581,19.55 -45.76055,29.27751 -73.47321,25.28977 -4.1665,-0.59955 -8.3287,-1.50624 -12.46123,-2.72298 m 20.79466,7.34565 c -4.84534,0.62733 -9.68956,0.92942 -14.50283,0.90048 -28.7799,-0.17305 -54.98323,-12.17771 -72.84952,-33.67044 m 23.99677,9.53367 c -25.15459,-14.44113 -43.7094,-40.00028 -48.91901,-66.30331 m 10.13879,25.55048 c -5.11788,-12.10758 -7.8021,-24.89945 -8.032,-37.68548 -0.19044,-10.59144 1.30597,-21.02677 4.35918,-30.91071 m -0.551,17.56287 c 5.36765,-30.071188 22.80526,-55.214408 48.78439,-70.726202 m -20.98969,14.670748 c 17.22238,-17.100807 41.2965,-27.731511 66.00079,-29.167918 m -17.51027,3.562089 c 6.61195,-1.197342 13.38619,-1.877839 20.23149,-2.016275 21.80707,-0.441016 43.44369,4.634533 62.15986,14.740511 M 349.30724,36.956638 c 30.10445,12.640285 53.43526,42.907625 60.66494,78.320402 m -9.24803,-19.98482 c 6.9759,14.93884 10.94519,30.74601 11.48371,46.70153 0.001,3e-5 0.002,6e-5 0.003,9e-5 0.38924,11.50522 -1.01448,22.86527 -4.17565,33.78854 m 15.31066,-40.68571 c -0.15622,28.25033 -12.42711,54.89341 -33.33773,74.14167 m 10.41669,-12.3889 c -17.64652,25.13428 -48.15261,41.63126 -81.88565,45.23337 m 25.45607,-11.96129 c -9.61478,2.71784 -19.4831,4.1428 -29.34686,4.20343 -21.66038,0.13314 -42.45472,-6.31807 -59.76581,-18.62115 m 27.97571,7.11594 C 256.1934,212.12348 233.43369,190.78083 223.15043,165.32522 m 0.11426,32.25274 c -10.33688,-15.8455 -15.34912,-34.62186 -14.60494,-53.79621 0.46187,-11.90045 3.13245,-23.73225 7.87466,-34.87744 m -6.62194,9.16685 c 1.30125,-25.063428 12.55528,-46.917832 30.24113,-63.139575 m -6.87647,22.459163 c 20.18269,-25.704814 46.77635,-40.983008 73.41249,-42.326495 1.28195,-0.06466 2.55912,-0.09648 3.83054,-0.0956 m -15.95601,7.988715 c 8.22598,-1.801252 16.54854,-2.697016 24.84981,-2.640544 24.45281,0.166349 47.65209,8.584488 66.82379,24.377892 M 353.44336,33.582503 c 22.41533,10.549274 41.13985,29.45884 52.90629,53.839659 m -7.08518,0.292203 c 10.05447,16.960295 16.67269,35.796325 18.43085,54.748845 0.003,-0.001 0.006,-0.003 0.009,-0.004 0.8845,9.51812 0.52106,18.86849 -1.13897,27.78916 m -1.22338,-29.6069 c -2.45948,30.85246 -16.77738,62.40218 -40.34036,83.20937 m 22.40358,-15.1792 c -17.00446,19.18496 -40.10813,31.5008 -65.28098,34.42023 m 14.92567,-7.81968 c -9.61379,3.02681 -19.3769,4.5246 -29.09809,4.54195 -16.21618,0.0289 -31.97102,-4.05979 -46.4291,-11.55005 m 12.68572,5.64691 c -24.313,-7.40014 -43.66105,-22.38519 -56.05413,-42.6498 m 7.11171,17.74953 c -16.28059,-17.73187 -24.46343,-42.49943 -22.97336,-68.4947 0.31436,-5.48414 1.05673,-10.98193 2.22294,-16.43587 m -3.24031,22.34223 c -0.20279,-2.66422 -0.29907,-5.33287 -0.28844,-7.99972 0.12207,-30.62818 14.31732,-59.319222 38.94017,-77.841921 m -25.60148,17.695137 c 18.42999,-26.074304 47.42337,-41.682143 81.23158,-43.753889 m -24.25573,3.649104 c 10.22152,-3.437184 20.60704,-5.210352 30.75644,-5.284903 21.41153,-0.157277 40.93343,7.263523 54.8347,20.78505 M 349.46555,41.772626 c 31.04167,10.673971 51.18592,34.574709 57.21139,61.962554 m -6.30649,-26.916948 c 9.06293,15.110922 13.9256,33.267408 13.72484,51.943138 -3.6e-4,5.6e-4 -7.3e-4,0.001 -0.001,0.002 -0.1406,13.05948 -2.75466,26.09529 -7.8294,38.22299"
         inkscape:path-effect="#path-effect3845"
         transform="matrix(0.77732739,0,0,0.77732739,87.518931,169.04658)"
         sodipodi:ry="101.78571"
         sodipodi:rx="101.78571"
         sodipodi:cy="134.86218"
         sodipodi:cx="313.21429"
         id="path3817"
         style="fill:none;fill-opacity:1;stroke:#000000;stroke-width:2.26618;stroke-linecap:butt;stroke-linejoin:miter;stroke-miterlimit:4;stroke-dasharray:none;stroke-opacity:1"
         sodipodi:type="arc" />
    </g>
  </g>
</svg>
