<?xml version="1.0" encoding="UTF-8" standalone="no"?>
<svg
   xmlns:dc="http://purl.org/dc/elements/1.1/"
   xmlns:cc="http://creativecommons.org/ns#"
   xmlns:rdf="http://www.w3.org/1999/02/22-rdf-syntax-ns#"
   xmlns:svg="http://www.w3.org/2000/svg"
   xmlns="http://www.w3.org/2000/svg"
   xmlns:sodipodi="http://sodipodi.sourceforge.net/DTD/sodipodi-0.dtd"
   xmlns:inkscape="http://www.inkscape.org/namespaces/inkscape"
   width="95.915688mm"
   height="49.096035mm"
   viewBox="0 0 95.915688 49.096035"
   version="1.1"
   id="svg1174"
   inkscape:version="1.0rc1 (09960d6, 2020-04-09)"
   sodipodi:docname="Torus.svg">
  <defs
     id="defs1168">
    <inkscape:path-effect
       tgtlength_rdm="0.3;1"
       tgtlength="100"
       tgtscale="10"
       tgt_places_rdmness="1;1"
       nbtangents="5"
       tremble_frequency="1"
       tremble_size="5;1"
       parallel_offset="5;1"
       ends_tolerance="0.1;1"
       strokeoverlap_rdm="0.3;1"
       strokeoverlap="0.3"
       strokelength_rdm="0.3;1"
       strokelength="100"
       nbiter_approxstrokes="4"
       is_visible="true"
       id="path-effect5320"
       effect="sketch" />
    <inkscape:path-effect
       tgtlength_rdm="0.3;1"
       tgtlength="100"
       tgtscale="10"
       tgt_places_rdmness="1;1"
       nbtangents="5"
       tremble_frequency="1"
       tremble_size="5;1"
       parallel_offset="5;1"
       ends_tolerance="0.1;1"
       strokeoverlap_rdm="0.3;1"
       strokeoverlap="0.3"
       strokelength_rdm="0.3;1"
       strokelength="100"
       nbiter_approxstrokes="4"
       is_visible="true"
       id="path-effect5320-7"
       effect="sketch" />
    <inkscape:path-effect
       tgtlength_rdm="0.3;1"
       tgtlength="100"
       tgtscale="10"
       tgt_places_rdmness="1;1"
       nbtangents="5"
       tremble_frequency="1"
       tremble_size="5;1"
       parallel_offset="5;1"
       ends_tolerance="0.1;1"
       strokeoverlap_rdm="0.3;1"
       strokeoverlap="0.3"
       strokelength_rdm="0.3;1"
       strokelength="100"
       nbiter_approxstrokes="4"
       is_visible="true"
       id="path-effect5320-7-8"
       effect="sketch" />
  </defs>
  <sodipodi:namedview
     inkscape:pagecheckerboard="true"
     id="base"
     pagecolor="#ffffff"
     bordercolor="#666666"
     borderopacity="1.0"
     inkscape:pageopacity="0.0"
     inkscape:pageshadow="2"
     inkscape:zoom="0.98994949"
     inkscape:cx="211.97228"
     inkscape:cy="155.06401"
     inkscape:document-units="mm"
     inkscape:current-layer="g1147"
     inkscape:document-rotation="0"
     showgrid="false"
     fit-margin-top="0"
     fit-margin-left="0"
     fit-margin-right="0"
     fit-margin-bottom="0"
     inkscape:window-width="1440"
     inkscape:window-height="855"
     inkscape:window-x="51"
     inkscape:window-y="23"
     inkscape:window-maximized="0" />
  <metadata
     id="metadata1171">
    <rdf:RDF>
      <cc:Work
         rdf:about="">
        <dc:format>image/svg+xml</dc:format>
        <dc:type
           rdf:resource="http://purl.org/dc/dcmitype/StillImage" />
        <dc:title></dc:title>
      </cc:Work>
    </rdf:RDF>
  </metadata>
  <g
     inkscape:label="Layer 1"
     inkscape:groupmode="layer"
     id="layer1"
     transform="translate(-50.315965,-19.297221)">
    <g
       id="g1147"
       transform="matrix(0.23559818,0,0,0.23559818,-50.227541,-23.880948)">
      <path
         transform="matrix(1.1230279,0,0,1.1230279,426.75842,183.27038)"
         d="M 184.54297 6.0136719 A 173.28274 85.155181 0 0 0 11.589844 91.169922 A 173.28274 85.155181 0 0 0 184.87305 176.32422 A 173.28274 85.155181 0 0 0 358.15625 91.169922 A 173.28274 85.155181 0 0 0 184.87305 6.0136719 A 173.28274 85.155181 0 0 0 184.54297 6.0136719 z M 182.125 70.621094 A 58.410198 18.222383 0 0 1 182.77539 70.621094 A 58.410198 18.222383 0 0 1 241.18555 88.84375 A 58.410198 18.222383 0 0 1 182.77539 107.06445 A 58.410198 18.222383 0 0 1 124.36523 88.84375 A 58.410198 18.222383 0 0 1 182.125 70.621094 z "
         style="fill:#318ce7;fill-opacity:1;stroke:#000000;stroke-width:1.7809;stroke-miterlimit:4;stroke-dasharray:none;stroke-opacity:1"
         id="path2987" />
      <path
         sodipodi:nodetypes="csc"
         inkscape:connector-curvature="0"
         id="path2987-4"
         d="m 707.72816,280.12309 c -1.62503,2.19747 -3.62342,4.29961 -5.96111,6.2851 -4.68215,3.97674 -10.7185,7.48065 -17.86267,10.36862 -11.47538,4.63882 -25.68202,7.63759 -41.50493,8.57122 m 10.38064,3.36021 c -8.31576,1.57663 -17.09915,2.43683 -26.08834,2.4789 -15.41319,0.0722 -29.34644,-2.2682 -40.68205,-6.1964 m 16.13666,-2.58136 c -8.84429,-1.29242 -16.71201,-3.42722 -23.46301,-6.17082 -6.96057,-2.82877 -12.78048,-6.32404 -17.24719,-10.25231 -2.06325,-1.81454 -3.84396,-3.72693 -5.31623,-5.71604 m 157.62062,2.70615 c -1.43082,1.56214 -3.06289,3.06713 -4.88214,4.50543 -4.87471,3.85397 -11.0968,7.2322 -18.41015,9.95296 -14.64519,5.44839 -33.61822,8.24746 -55.07057,7.05444 -0.1663,-0.009 -0.33253,-0.0187 -0.49869,-0.0284 m 10.53679,0.2731 c -6.13985,0.44409 -12.52255,0.70973 -18.96744,0.75044 -19.37657,0.12239 -36.13673,-1.81142 -49.01438,-6.10655 -6.39641,-2.13342 -11.73703,-4.82141 -15.82472,-8.01536 -1.42693,-1.11496 -2.69815,-2.28953 -3.80244,-3.51849 m 25.76934,12.36547 c -0.88135,-0.3377 -1.74749,-0.68117 -2.5981,-1.03035 -7.24426,-2.97379 -13.36216,-6.3619 -18.146,-10.11512 -3.95348,-3.10175 -6.99154,-6.45074 -8.9712,-9.99301 m 164.93208,-2.52223 c -1.8259,3.42794 -4.69204,6.70393 -8.47136,9.77629 -4.71415,3.83233 -10.86129,7.35751 -18.19877,10.47969 -10.2422,4.35817 -22.93055,7.97648 -37.01329,10.35962 m 10.22683,1.29831 c -10.25291,2.3974 -21.24367,3.49747 -32.7191,3.07026 -14.51547,-0.54038 -28.09004,-3.46316 -39.94938,-7.84741 m 18.07428,5.7123 c -10.28643,-1.64435 -19.78694,-4.19378 -28.04193,-7.47134 -7.22176,-2.86733 -13.47999,-6.28799 -18.46685,-10.13652 -3.06619,-2.36629 -5.64852,-4.89183 -7.67917,-7.54719 m 151.9267,-7.69619 c -1.94399,3.4115 -4.80482,6.62961 -8.42927,9.58355 -4.63689,3.7791 -10.52568,7.1268 -17.3228,9.8803 -10.72975,4.3466 -23.78178,7.23182 -37.61243,7.88474 m 12.95686,-6.60728 c -9.24418,1.93071 -18.99577,3.06948 -28.97576,3.32661 -14.91562,0.3843 -28.52177,-1.24762 -39.87701,-4.22309 m 15.65065,4.89272 c -9.30944,-1.86214 -17.66074,-4.33658 -24.84904,-7.37569 -6.86558,-2.90267 -12.64232,-6.30996 -17.11374,-10.13834 -2.87838,-2.46442 -5.21364,-5.10224 -6.93207,-7.87776 m 153.95502,10.55989 c -1.69853,1.87413 -3.65412,3.67524 -5.83831,5.39133 -4.98213,3.91441 -11.15332,7.3861 -18.15998,10.25913 -12.00359,4.922 -26.42446,8.08449 -41.98087,8.82422 m 14.49683,-7.14006 c -7.68998,1.42792 -15.98161,2.22947 -24.75519,2.34071 -20.23228,0.25652 -39.81147,-3.20154 -55.30782,-8.70418 -4.12801,-1.46582 -7.98712,-3.0836 -11.52067,-4.83025 m 31.73861,12.93721 c -4.16866,-1.21858 -8.09359,-2.61274 -11.74188,-4.16461 -7.05597,-3.00138 -13.07147,-6.59071 -17.78499,-10.62005 -2.58947,-2.21361 -4.78626,-4.56045 -6.54261,-7.01379 m 63.22219,31.70737 -82.53946,-31.10434 m 64.35364,28.65042 -66.8078,-35.43757 m 22.75217,17.83385 -17.75971,-35.91638 m 176.8668,29.19606 -91.1692,27.32072 m 87.66904,-23.51279 -97.82661,23.3723"
         style="fill:none;stroke:#000000;stroke-width:2;stroke-miterlimit:4;stroke-dasharray:none;stroke-opacity:1" />
      <path
         inkscape:connector-curvature="0"
         id="path2987-4-4"
         d="m 554.55497,286.72954 c 0.24931,-0.84716 0.61352,-1.68264 1.08728,-2.50443 0.98102,-1.70165 2.43255,-3.34592 4.3098,-4.91499 3.75543,-3.1389 9.21546,-5.97841 16.05196,-8.38834 6.84037,-2.41129 15.04686,-4.38895 24.31226,-5.8213 9.26411,-1.43216 19.56498,-2.31569 30.57021,-2.54782 2.83458,-0.0598 5.64636,-0.0749 8.42626,-0.0476 m -26.57128,-8.23775 c 4.6767,-0.14641 9.60435,-0.13273 14.70569,0.0716 9.96871,0.39924 19.61009,1.4865 28.52834,3.2181 8.91636,1.73124 16.965,4.07895 23.78907,6.92391 3.26787,1.36238 6.23751,2.83183 8.86658,4.38783 m -15.03158,-0.67499 c 2.75976,0.86776 5.39105,1.77747 7.86765,2.73172 6.51671,2.51093 11.9043,5.30891 15.70373,8.4008 1.89585,1.5428 3.38458,3.14982 4.41567,4.81565 0.85748,1.38535 1.39582,2.80732 1.59011,4.25959 m -133.14299,-8.97681 c 0.13642,-1.62624 0.65666,-3.21025 1.52906,-4.74528 0.99572,-1.75201 2.4505,-3.43994 4.30979,-5.03926 3.72041,-3.20022 9.05421,-6.04134 15.56342,-8.31298 6.52506,-2.27717 14.1678,-3.96308 22.60657,-4.9352 6.12061,-0.70507 12.60784,-1.02947 19.37195,-0.95548 m -19.34399,7.2812 c 7.76565,-0.71254 16.1371,-1.15295 24.72622,-1.2385 10.21142,-0.10171 19.85865,0.30652 28.66103,1.2319 8.8028,0.92542 16.70356,2.36272 23.39243,4.28747 6.68318,1.92312 12.10134,4.31901 15.8854,7.10582 0.37513,0.27627 0.73394,0.55621 1.07606,0.83969 m -23.79986,-14.19786 c 2.94655,0.74083 5.72739,1.58422 8.31978,2.51389 6.72969,2.41337 12.20616,5.41399 16.00019,8.72376 1.75332,1.52954 3.15225,3.12897 4.15652,4.77816 m -150.51136,8.97718 c 0.21166,-0.65229 0.49732,-1.29716 0.85383,-1.93327 0.91424,-1.63126 2.29437,-3.20528 4.09377,-4.70717 3.59862,-3.00364 8.87999,-5.7235 15.49867,-8.06485 6.60703,-2.33724 14.58749,-4.30948 23.4853,-5.76242 8.88867,-1.45144 18.77256,-2.3962 29.08226,-2.62017 6.87713,-0.14939 13.51145,0.0313 19.79517,0.52268 m -37.35329,-1.42479 c 3.07362,-0.19713 6.22918,-0.32022 9.45486,-0.36556 9.93683,-0.13969 19.60833,0.47145 28.45691,1.65905 8.85368,1.18829 16.91724,2.95746 23.696,5.16117 4.01628,1.30566 7.58706,2.7653 10.62522,4.35435 m -8.53816,2.13983 c 1.6756,0.55278 3.28458,1.11626 4.82422,1.69147 6.83135,2.55218 12.27992,5.33007 16.05739,8.37672 1.88551,1.52072 3.34649,3.1028 4.3407,4.74052 0.65249,1.07482 1.10316,2.17256 1.33916,3.28848 M 565.11203,281.57311 c 0.16321,-1.61949 0.7124,-3.19663 1.61944,-4.72354 1.03526,-1.74277 2.53716,-3.42015 4.45659,-5.0064 3.83987,-3.17335 9.34765,-5.98043 16.13365,-8.1969 6.80283,-2.22196 14.83389,-3.8353 23.84116,-4.69933 9.01858,-0.86512 18.89522,-0.96961 29.48758,-0.25716 0.15858,0.0107 0.31708,0.0215 0.4755,0.0325 m -19.92349,-1.32132 c 6.59455,-0.48743 13.45411,-0.72326 20.43057,-0.65708 10.31564,0.0979 19.94014,0.8471 28.6841,2.17644 8.73616,1.32815 16.55948,3.23163 23.16803,5.60221 5.29569,1.89964 9.80078,4.09646 13.30801,6.51432 m -25.16551,-3.62311 c 2.68782,0.65378 5.22098,1.37037 7.58163,2.14322 6.54333,2.1422 11.77417,4.72039 15.34424,7.61987 1.78522,1.44991 3.15632,2.98116 4.06524,4.57581 0.60985,1.06996 1.01168,2.16876 1.18865,3.28795 m -144.75646,2.43122 c 0.0239,-1.65136 0.52079,-3.27585 1.44471,-4.85807 0.95939,-1.64296 2.37716,-3.23781 4.20453,-4.78359 3.65345,-3.09045 8.94017,-5.98025 15.43877,-8.67696 6.46902,-2.68444 14.23764,-5.21469 22.7,-7.4747 5.02814,-1.34286 10.36331,-2.60628 15.85105,-3.74374 m -14.60378,4.82256 c 8.09079,-0.91438 16.98757,-1.35092 26.263,-1.15617 9.97018,0.20933 19.42193,1.1278 28.0224,2.67373 8.59878,1.54562 16.25966,3.70316 22.67537,6.34269 4.99839,2.05642 9.21642,4.39612 12.48627,6.93241 m -20.04269,-7.6614 c 4.0067,0.75848 7.77369,1.72311 11.21513,2.84855 6.51674,2.13115 11.88723,4.84386 15.61253,7.89132 1.86518,1.52579 3.32229,3.1381 4.31859,4.81469 0.36025,0.60623 0.66024,1.22082 0.89766,1.84288 m -122.88143,-31.23867 122.79013,9.2938 m -161.10812,4.81453 113.3725,-16.27948 m -84.6193,4.04632 126.4956,4.67757 m -35.87845,-4.97649 52.65612,28.50265 M 613.33511,253.32173 721.2452,272.33345"
         style="fill:none;stroke:#000000;stroke-width:2;stroke-miterlimit:4;stroke-dasharray:none;stroke-opacity:1" />
      <path
         inkscape:original-d="m 558.31227,286.48925 c 0,-14.28639 32.80637,-25.8678 73.27509,-25.8678 40.46875,0 73.27509,11.58141 73.27509,25.8678 0,0 0,0 0,0 m 6.87676,-9.9884 c -7.65472,18.37354 -40.73761,32.19431 -80.38926,32.19431 -39.55118,0 -72.56691,-13.75087 -80.33053,-32.05484 m 274.93197,9.51823 A 194.60135,95.631645 0 0 1 631.35004,381.7902 194.60135,95.631645 0 0 1 436.74869,286.15855 194.60135,95.631645 0 0 1 631.35004,190.52691 194.60135,95.631645 0 0 1 825.95139,286.15855 Z"
         inkscape:path-effect="#path-effect5320"
         inkscape:connector-curvature="0"
         d="m 563.40221,288.289 c 1.01133,-1.42789 2.33021,-2.8122 3.92681,-4.14221 3.86977,-3.22361 9.36437,-6.12289 16.01988,-8.51814 6.66649,-2.39921 14.45759,-4.28067 23.02485,-5.52686 8.57782,-1.24772 17.85694,-1.84945 27.62791,-1.75198 1.47564,0.0147 2.94073,0.0452 4.39395,0.0905 m -20.55213,-9.71034 c 4.69767,-0.42867 9.60595,-0.66393 14.68701,-0.68866 10.10574,-0.0492 19.92633,0.73935 28.9407,2.15382 9.01462,1.41451 17.24417,3.45802 24.18645,5.93626 1.46607,0.52336 2.87558,1.06638 4.22417,1.62744 m -21.1912,1.06808 c 3.66709,0.8527 7.1279,1.83033 10.31518,2.91612 6.46789,2.20337 11.79706,4.84699 15.51164,7.81639 0.68622,0.54856 1.31708,1.10799 1.88988,1.67759 m -132.97867,1.72267 c 0.77639,-0.79418 1.66816,-1.56989 2.66887,-2.32558 3.90222,-2.94682 9.46544,-5.59057 16.23844,-7.80909 6.75899,-2.21395 14.78813,-4.02418 23.60317,-5.24422 8.82139,-1.22092 18.53713,-1.86634 28.77061,-1.70586 7.44652,0.11677 14.66643,0.65211 21.57652,1.57147 m -35.23004,-9.90495 c 1.90697,-0.10427 3.84954,-0.17873 5.82568,-0.22265 9.95079,-0.22113 19.83747,0.35297 29.00714,1.51634 9.17275,1.16377 17.68691,2.92418 24.92278,5.11373 7.25312,2.19478 13.23566,4.82242 17.4838,7.77311 2.12468,1.47577 3.80911,3.02723 5.01714,4.64508 0.40264,0.53925 0.75184,1.08515 1.04668,1.63731 m -146.25551,8.33716 c 0.17626,-1.18352 0.59617,-2.35003 1.24234,-3.49246 0.93275,-1.64911 2.33731,-3.24933 4.17205,-4.79313 3.67012,-3.08813 9.06381,-5.95285 15.88919,-8.577 6.80889,-2.61781 15.0984,-5.01512 24.43938,-7.10048 8.03159,-1.79304 16.93345,-3.3748 26.31467,-4.62857 m -24.7649,5.08342 c 6.66483,-0.74933 13.91217,-1.17349 21.58928,-1.21996 10.25974,-0.0621 20.3167,0.55636 29.60118,1.73539 9.29016,1.17974 17.80445,2.91988 25.03153,5.10855 0.10678,0.0323 0.21328,0.0648 0.3195,0.0973 m -11.30086,-8.31948 c 5.9441,1.10243 11.29814,2.56026 15.96377,4.28523 6.58105,2.43313 11.81829,5.40774 15.37287,8.67719 1.77894,1.63625 3.14393,3.35314 4.04393,5.12403 0.0633,0.1245 0.12425,0.24928 0.18293,0.37435 m -145.07484,0.74828 c 0.85158,-0.98427 1.8706,-1.94506 3.04553,-2.88075 3.81104,-3.03502 9.25721,-5.80044 15.89167,-8.22951 6.61985,-2.42372 14.47208,-4.529 23.05327,-6.19547 8.57833,-1.66592 17.99884,-2.91519 27.7901,-3.58134 5.86644,-0.39913 11.55643,-0.568 17.00872,-0.51521 m -22.24355,-1.76335 c 2.54519,0.0214 5.14791,0.0819 7.79692,0.18531 10.05781,0.39259 19.7886,1.36436 28.8238,2.91389 9.03284,1.54913 17.23446,3.65328 24.23586,6.24215 6.98827,2.58402 12.69501,5.62134 16.70647,8.96261 1.03906,0.86548 1.96343,1.75061 2.7664,2.65287 m 0.41733,7.45412 c -1.31077,1.59011 -2.82567,3.12474 -4.53069,4.59505 -4.57172,3.94235 -10.50417,7.41762 -17.5468,10.2781 -14.11152,5.73164 -32.55046,8.92842 -52.70697,8.59527 -0.51263,-0.008 -1.02403,-0.0192 -1.53412,-0.0322 m 15.27188,-6.06912 c -5.7241,0.84727 -11.79237,1.28418 -18.13181,1.27267 -19.46753,-0.0353 -38.09795,-4.26084 -52.58952,-10.76976 -6.23119,-2.79875 -11.70988,-6.02518 -16.23102,-9.5598 m 20.59526,18.49218 c -1.93371,-0.65648 -3.80989,-1.34581 -5.62159,-2.06654 -6.83209,-2.71792 -12.73371,-5.87647 -17.38346,-9.41169 -3.84438,-2.9229 -6.82195,-6.09522 -8.7641,-9.46713 m 163.63794,-2.01058 c -2.18815,3.78871 -5.35417,7.38232 -9.35387,10.72567 -4.99239,4.17314 -11.26896,7.94545 -18.57735,11.24232 -11.12043,5.01653 -24.47668,8.87264 -39.5404,11.58616 m 18.39766,-8.30551 c -9.25022,1.5455 -19.5189,2.41265 -30.38021,2.38521 -18.35128,-0.0464 -35.61779,-2.64086 -50.04571,-7.34284 m 18.7643,7.589 c -8.25971,-1.32573 -15.74812,-3.33696 -22.26538,-5.86306 -6.96701,-2.70044 -12.85918,-6.00247 -17.42454,-9.72556 -2.80887,-2.29065 -5.12254,-4.74634 -6.8767,-7.32769 m 158.1629,-2.42729 c -1.94762,3.56845 -4.84126,6.90429 -8.53787,9.90434 -4.73412,3.84205 -10.78375,7.13292 -17.87277,9.66964 -14.23104,5.09239 -32.42767,7.06871 -52.35461,4.71334 -3.39787,-0.40164 -6.7428,-0.91716 -10.02127,-1.53639 m 26.76725,0.42401 c -5.8788,0.80289 -11.98064,1.30455 -18.23663,1.48521 -19.55033,0.56457 -37.52685,-2.08982 -51.23168,-6.72026 -6.89031,-2.32802 -12.77289,-5.17595 -17.36956,-8.44035 -1.47458,-1.04719 -2.81669,-2.13711 -4.01743,-3.26623 m 22.10495,8.28675 c -0.74523,-0.27511 -1.47941,-0.55736 -2.20225,-0.84654 -7.02335,-2.80975 -12.98148,-6.27537 -17.61109,-10.20036 -2.98292,-2.52891 -5.41944,-5.25288 -7.2329,-8.12081 m 144.77492,10.13853 c -1.49778,1.7989 -3.26615,3.52887 -5.27866,5.1779 -4.59099,3.7618 -10.45535,7.10401 -17.25925,9.87238 -13.56003,5.51732 -31.03018,8.80873 -49.06176,8.25454 -2.57849,-0.0793 -5.1076,-0.23546 -7.5814,-0.46595 m 25.06278,-0.025 c -5.09603,0.43981 -10.39385,0.63089 -15.84035,0.54251 -19.75821,-0.32064 -38.07551,-4.26278 -52.51991,-10.68038 -7.20588,-3.20154 -13.41507,-7.00518 -18.32565,-11.24303 -1.25182,-1.08033 -2.41922,-2.18885 -3.49718,-3.3228 m 26.20569,14.85742 c -0.47932,-0.20431 -0.95388,-0.40998 -1.42365,-0.61702 -7.29008,-3.21297 -13.4137,-6.75281 -18.19917,-10.63486 -2.62663,-2.13076 -4.84353,-4.35996 -6.61234,-6.67868 m 270.98947,10.45493 c -0.30018,5.24078 -1.51238,10.41527 -3.62225,15.44109 -2.47471,5.89486 -6.17875,11.5692 -11.04964,16.85221 -9.73295,10.55642 -24.13444,19.53456 -42.14329,25.18518 -1.3185,0.4137 -2.65582,0.80934 -4.01141,1.18619 m 17.44679,-5.49191 c -6.02544,3.88641 -12.58511,7.57298 -19.59428,11.01121 -17.86636,8.76404 -38.68306,15.93161 -61.04509,20.62932 -3.18099,0.66825 -6.39477,1.28694 -9.63849,1.8538 M 721.86081,363.134 c -5.92521,1.912 -12.09059,3.64793 -18.48583,5.24042 -22.1758,5.52204 -46.32526,9.12414 -71.08632,12.44456 m 27.95444,1.2928 c -9.68012,0.68109 -19.42578,1.09049 -29.18583,1.22163 -14.5172,0.19505 -29.0317,-0.22599 -43.383,-1.27521 m 18.29254,4.13773 c -16.00099,-1.61976 -31.67463,-3.81056 -46.6692,-6.90162 -13.45447,-2.77357 -26.10395,-6.21934 -37.81471,-10.49742 m 19.10534,7.34444 c -17.79571,-4.11178 -33.7944,-9.98905 -47.70245,-16.97529 -8.07594,-4.05668 -15.47834,-8.50394 -22.11561,-13.21981 m 13.50818,10.47655 c -14.60397,-7.68321 -26.13119,-17.47897 -34.07689,-28.21502 -4.63021,-6.25623 -8.05824,-12.84529 -10.22614,-19.60312 -2.09437,-6.52862 -3.01323,-13.21195 -2.72657,-19.96063 m -1.00076,13.72754 c -0.39969,-0.85316 -0.77546,-1.7061 -1.12731,-2.55879 -2.60787,-6.31997 -3.90021,-12.62301 -3.88432,-18.84854 0.0159,-6.22373 1.3404,-12.35254 3.9505,-18.28281 2.61133,-5.93306 6.49737,-11.6405 11.6105,-17.03203 7.4934,-7.90139 17.4781,-14.98098 29.73383,-21.19604 m -23.25053,25.87499 c 9.23691,-8.83173 21.9545,-17.26754 37.59619,-24.66293 10.69794,-5.05798 22.81551,-9.6437 35.9375,-13.37039 m -9.49556,-1.89254 c 14.66562,-5.63068 30.83703,-10.28294 47.95803,-13.6702 10.4443,-2.06633 21.22702,-3.65921 32.24362,-4.72295 m -23.713,5.75259 c 20.52777,-3.36246 40.87039,-4.55132 60.71368,-3.48516 9.03601,0.4855 17.91623,1.43528 26.62812,2.83898 m -24.40806,-8.83679 c 23.89913,-0.0354 48.12811,2.75967 70.78757,7.80486 7.69192,1.71263 15.1774,3.67888 22.38795,5.87172 m -21.00346,-11.70228 c 1.26781,0.24329 2.52637,0.49437 3.77583,0.75323 24.45509,5.06655 45.34207,13.11396 62.95199,23.5601 5.51296,3.27028 10.68158,6.76438 15.48743,10.44664 m -30.64672,-0.0447 c 1.60699,0.77773 3.19293,1.56537 4.75708,2.36326 18.03608,9.20042 32.739,19.55298 43.17455,31.14462 5.18198,5.75605 9.21923,11.72031 12.05602,17.84328 1.93371,4.17373 3.3004,8.4016 4.09584,12.66253 m -10.17459,-39.39494 c 2.19903,3.39427 4.01705,6.9152 5.42647,10.52563 2.33748,5.98781 3.53555,12.17935 3.53551,18.45628 -4e-5,6.27591 -1.19735,12.59472 -3.59462,18.85479 -2.35508,6.14989 -5.86318,12.22697 -10.48672,18.09299 m 17.84365,-24.43657 c 0.0582,5.90175 -1.17015,11.79831 -3.66866,17.56633 -2.62543,6.06102 -6.65332,11.98111 -12.07383,17.63496 -10.86662,11.33438 -27.23962,21.49626 -48.65862,29.55721 -2.21518,0.83367 -4.48116,1.6436 -6.79666,2.42871 m 38.34425,-8.87007 c -5.70911,4.15485 -12.10508,8.02799 -19.13652,11.61092 -17.83425,9.08758 -39.06983,15.96282 -62.18426,21.00754 -2.05562,0.44864 -4.11992,0.88146 -6.1912,1.29892 m 17.31176,-22.47695 c -6.63621,1.89355 -13.41422,3.64334 -20.29605,5.25869 -16.15921,3.79299 -32.79814,6.82247 -49.30812,9.21736 m 16.61655,13.1045 c -13.31788,1.51815 -26.12072,2.05534 -38.47394,1.69824 -15.90009,-0.45964 -30.89919,-2.39668 -45.14835,-5.52564 m 18.13995,-2.97069 c -17.05423,-1.77985 -32.78003,-3.55482 -47.41922,-5.88033 -14.85457,-2.35973 -28.20282,-5.22862 -40.34256,-9.05258 m 27.90596,10.60621 c -16.62706,-4.41685 -31.66942,-9.93784 -44.83089,-16.42247 -8.83503,-4.35301 -16.7771,-9.11846 -23.73481,-14.22961 m 12.55922,4.78788 c -14.25181,-7.1438 -25.52845,-16.03087 -33.55531,-25.55418 -4.92537,-5.84361 -8.6654,-11.96684 -11.18992,-18.20785 -1.75295,-4.33356 -2.91926,-8.72111 -3.50017,-13.12488 m 1.50108,15.81902 c -0.687,-1.28651 -1.31453,-2.57733 -1.88291,-3.87159 -2.72267,-6.19985 -4.0887,-12.48085 -4.12812,-18.73886 -0.0394,-6.26033 1.24862,-12.48765 3.82508,-18.58283 2.57836,-6.09969 6.43297,-12.03565 11.49796,-17.73916 1.85835,-2.09263 3.87579,-4.14971 6.0477,-6.16923 m -12.38788,17.10246 c 1.30994,-1.81786 2.74799,-3.62867 4.31293,-5.43044 9.7864,-11.26746 24.57241,-22.19683 43.60728,-32.03556 8.64225,-4.467 18.16755,-8.70882 28.4118,-12.58856 m -24.26676,7.52987 c 17.10379,-7.83736 37.01173,-13.96308 58.89967,-18.00164 12.05085,-2.22351 24.61438,-3.79841 37.54008,-4.69271 m -34.74688,0.32251 c 22.00738,-4.26502 45.05059,-6.07148 69.27269,-5.90557 8.65216,0.0593 17.41075,0.36993 26.25686,0.90183 m -24.76929,-1.89573 c 7e-5,0 0.64011,-0.006 0.64018,-0.006 25.50975,-0.2076 49.05439,2.17124 69.42433,6.64741 6.97921,1.53364 13.57016,3.30964 19.74095,5.30615 M 699.6555,198.5165 c 1.9573,0.29899 3.88881,0.61199 5.79467,0.93835 24.12592,4.13143 44.5478,10.48074 60.89755,17.83936 6.14914,2.76757 11.78538,5.70674 16.87079,8.7719 m -18.93442,-15.5006 c 1.46875,0.63222 2.91747,1.28314 4.345,1.95158 17.69697,8.28658 32.01328,19.18126 41.57255,30.99268 4.79067,5.91933 8.40285,12.07667 10.76628,18.34494 1.77998,4.72087 2.84835,9.49521 3.18812,14.27453 m -0.80189,-19.92027 c 2.23465,3.46696 4.07773,6.93986 5.52577,10.41828 2.56168,6.15355 3.8754,12.29903 3.93674,18.37896 0.0613,6.07719 -1.13028,12.05567 -3.54336,17.83016 -2.41338,5.77521 -6.03472,11.3127 -10.79252,16.50628 -2.76738,3.02084 -5.91005,5.91544 -9.40913,8.66836 m 15.58557,-47.8294 c -0.33828,5.77586 -1.74148,11.68687 -4.21947,17.68248 -2.56772,6.21271 -6.26941,12.46872 -11.0612,18.72772 -8.26396,10.79433 -19.88882,21.72481 -34.21469,31.98497 m 10.12029,-4.1673 c -7.25358,5.55726 -15.5155,10.69664 -24.63245,15.37715 -13.24381,6.79919 -28.06076,12.51331 -43.91096,17.16806 m 21.1044,-13.43338 c -10.86905,3.53372 -22.60282,6.51587 -35.01386,8.85115 -19.87731,3.74014 -41.32582,5.78962 -63.4809,5.8336 m 33.95673,3.66115 c -14.28429,1.76689 -28.28526,2.8004 -42.04162,3.23662 -12.85411,0.40762 -25.47404,0.29275 -37.82331,-0.22731 m 15.69774,-3.84044 c -19.4567,-1.81322 -37.16978,-3.63351 -53.53641,-6.36259 -8.17488,-1.36313 -15.89671,-2.93419 -23.22835,-4.80468 m 25.41514,-0.21139 c -21.29367,-5.17947 -41.68637,-10.84458 -60.29216,-17.74479 -6.46512,-2.39768 -12.63239,-4.91487 -18.47049,-7.57081 m 7.26488,9.28341 c 0,0 -0.15517,-0.0773 -0.15517,-0.0773 -17.40938,-8.68327 -31.06378,-19.60935 -39.88453,-31.7131 -4.40061,-6.03847 -7.58088,-12.34225 -9.46601,-18.78835 -1.50626,-5.15059 -2.18491,-10.38915 -2.00146,-15.65596 m 11.5529,19.80708 c -1.61722,-2.61766 -3.00309,-5.23329 -4.1593,-7.84597 -2.72822,-6.16495 -4.17047,-12.29942 -4.35338,-18.34203 -0.18286,-6.04093 0.89528,-11.95873 3.17482,-17.64199 2.28023,-5.68496 5.74662,-11.09455 10.28876,-16.11514 3.7295,-4.12235 8.15515,-7.95047 13.18707,-11.4385 m -17.71996,18.15917 c 0.70488,-0.87608 1.4343,-1.74853 2.18806,-2.61719 10.08538,-11.62282 24.44102,-22.46688 42.24809,-32.13667 10.77716,-5.85233 22.78719,-11.2574 35.83736,-16.1371 m -22.40593,11.23812 c 15.42948,-7.33033 33.17288,-12.53856 53.07186,-16.05148 7.21854,-1.27434 14.64388,-2.31277 22.2583,-3.15403 m -20.8184,-4.58398 c 21.86717,-4.38996 45.96705,-6.44475 70.35601,-6.18318 0.77601,0.008 1.55197,0.019 2.32781,0.032 m -13.24365,10.0975 c 4.37468,-0.0645 8.83077,-0.0616 13.34757,0.0143 25.25033,0.42446 51.82818,3.11344 76.78944,8.79912 0.9861,0.22461 1.96892,0.45372 2.94832,0.68735 m -28.08673,-9.86662 c 7.39454,1.061 14.81612,2.39901 22.20761,4.00805 17.97144,3.91217 35.55489,9.3808 51.95329,16.21111 m -10.9738,-1.86878 c 10.58467,3.05575 20.45655,6.96492 29.36859,11.43707 14.70051,7.37686 26.82945,16.2842 35.75431,25.83656 m -12.35819,-16.95964 c 7.77834,5.00614 14.12321,10.68855 19.02389,16.72455 4.69892,5.7875 8.10049,11.93517 10.19325,18.22968 2.09468,6.30027 2.88585,12.76419 2.3617,19.24671 -0.16153,1.9978 -0.44796,3.99734 -0.85953,5.99512 m -6.65745,5.90598 c -0.40525,4.44654 -1.40597,8.8147 -2.98488,13.07639 -2.30847,6.23082 -5.84275,12.20681 -10.51789,17.83834 -8.1841,9.85833 -19.6075,18.37367 -33.61327,25.53982 m 11.94552,-17.28552 c -6.60694,4.93284 -14.17492,9.51031 -22.62451,13.69812 -13.91871,6.89843 -29.9705,12.61192 -47.60196,17.13749 m 21.90933,-1.52403 c -10.73861,3.48878 -22.06362,6.34174 -33.96565,8.53389 -20.77597,3.82657 -42.96741,5.57958 -66.76874,5.39513 m 34.71479,-8.32771 c -13.72552,1.06264 -26.9826,1.609 -39.75421,1.49071 -14.04435,-0.13009 -27.44195,-1.06227 -40.38811,-2.96515 m 21.57955,11.95373 c -17.80946,-1.54631 -34.95238,-4.01679 -51.18538,-7.79599 -6.84539,-1.59368 -13.47882,-3.40849 -19.89014,-5.46338 m 5.83212,4.17446 c -22.05084,-3.67492 -42.77774,-10.89654 -60.5269,-19.53557 -6.6868,-3.25466 -13.01355,-6.74183 -18.88867,-10.37332 m 26.92243,6.58591 c -17.70447,-9.88408 -32.57048,-19.34375 -43.95498,-30.27211 -5.57902,-5.35548 -10.05477,-10.82947 -13.38125,-16.46197 -2.96046,-5.01274 -4.96918,-10.08365 -6.03355,-15.18133 m 9.28495,21.27626 c -1.40543,-2.35882 -2.61427,-4.74147 -3.62806,-7.14241 -2.66625,-6.31444 -3.98414,-12.75686 -3.97832,-19.22972 0.006,-6.47741 1.33618,-12.9734 3.95641,-19.42915 2.62317,-6.46299 6.5206,-12.84448 11.63726,-19.15256 5.44516,-6.71308 12.19232,-13.24957 20.14558,-19.72466 m -23.26717,21.30253 c 10.21717,-11.19109 24.64908,-21.78791 42.14,-30.77095 5.18627,-2.66358 10.6546,-5.19083 16.36942,-7.54454 m -18.67187,11.12057 c 17.4959,-7.8151 38.8448,-14.44381 63.06313,-19.02711 2.71402,-0.51363 5.46441,-1.00159 8.24966,-1.46261 m -13.40987,-3.15563 c 2.29997,-0.46925 4.648,-0.92657 7.04049,-1.37059 20.00517,-3.71274 43.3831,-6.54231 67.57457,-7.51535 m -10.67995,2.77199 c 8.38122,-0.5386 16.75901,-0.88975 25.04547,-1.04994 18.23673,-0.35255 35.9852,0.21968 52.46918,1.74587 m -28.77507,-0.94015 c 13.27771,0.6113 26.58943,2.68996 39.65657,5.83989 22.07431,5.32116 43.67681,13.76376 62.69063,23.37527 m -27.02447,-13.44658 c 11.77013,3.52203 23.01299,8.11474 33.29762,13.48305 13.16314,6.87082 24.66961,14.96181 33.93283,23.75741 m -7.8535,-15.33934 c 9.7181,5.72381 17.41773,12.5049 23.12664,19.7813 4.6845,5.97071 8.07014,12.32511 10.15419,18.83685 2.03409,6.35565 2.83714,12.8826 2.40672,19.45224 m -6.80202,-10.9765 c 1.39118,5.15175 2.04258,10.23973 1.92185,15.26123 -0.15026,6.24983 -1.4976,12.35588 -4.05367,18.22252 -2.55443,5.86289 -6.3062,11.46122 -11.22703,16.6618 -3.42259,3.61716 -7.40476,7.03578 -11.9389,10.21966 m -369.5533,-41.07069 28.46586,-59.32796 m 282.2576,-36.27143 92.14956,57.77247 M 596.05305,185.018 744.44968,199.89632 m -24.22207,88.45374 -89.63272,28.08948 m 9.43455,74.18384 -160.01095,-30.97664"
         style="fill:none;stroke:#000000;stroke-width:2.11017;stroke-miterlimit:4;stroke-dasharray:none;stroke-opacity:1"
         id="path2987-4-4-7" />
      <path
         sodipodi:nodetypes="cc"
         inkscape:original-d="m 638.78145,370.90821 c -107.47536,0 -194.60136,-42.81575 -194.60135,-95.63165"
         inkscape:path-effect="#path-effect5320-7"
         inkscape:connector-curvature="0"
         d="m 635.30551,378.74578 c -23.68269,-1.23312 -47.25512,-3.42558 -69.64068,-7.6867 -3.66087,-0.69685 -7.26833,-1.44512 -10.81863,-2.24809 m 17.82637,-6.18039 c -2.93945,-0.57016 -5.82824,-1.16108 -8.66765,-1.77366 -22.60418,-4.87673 -41.99358,-11.11666 -58.31947,-18.94432 m 7.69196,11.86728 c -5.93979,-2.33326 -11.50726,-4.82584 -16.71579,-7.47102 -17.81171,-9.04576 -31.62661,-19.99482 -41.04317,-32.20744 -1.03418,-1.34125 -2.01572,-2.69856 -2.94352,-4.07094 m 16.92311,14.98154 c -2.83189,-2.58944 -5.44376,-5.28711 -7.80596,-8.07622 -4.69801,-5.54707 -8.39821,-11.44294 -10.90862,-17.58863 -1.31,-3.20702 -2.29528,-6.47995 -2.93136,-9.80659 m 177.7827,78.11422 c -24.57062,-1.0894 -45.64264,-3.83443 -64.42155,-8.72287 -5.07333,-1.32066 -9.95181,-2.79143 -14.64888,-4.41528 m 20.49322,11.25902 c -1.54881,-0.24752 -3.08008,-0.51352 -4.59394,-0.79731 -23.65063,-4.43362 -43.42706,-13.29434 -59.2271,-24.18229 -1.82308,-1.25631 -3.59707,-2.54242 -5.32095,-3.85512 m 8.63388,11.56263 c -3.52366,-1.45875 -6.89598,-2.98167 -10.11816,-4.56426 -17.66924,-8.6783 -31.04121,-19.26606 -39.75337,-30.94939 -2.35941,-3.16406 -4.3838,-6.41843 -6.05629,-9.74666 m 15.1485,9.17959 c -1.11961,-1.21391 -2.19737,-2.43493 -3.2316,-3.66353 -4.83805,-5.74733 -8.70144,-11.63521 -11.4324,-17.68848 -2.50269,-5.54731 -4.0375,-11.19855 -4.50448,-16.93335 m 187.00195,96.81708 c -24.31431,0.15362 -48.83852,-3.47222 -71.24946,-9.40509 -7.22183,-1.91185 -14.24726,-4.0688 -21.01476,-6.42965 m 27.99724,4.6669 c -1.50917,-0.21711 -3.0043,-0.44677 -4.48516,-0.68828 -23.35844,-3.8095 -43.86534,-10.68832 -60.14882,-18.42568 -6.19241,-2.94242 -11.89871,-6.06771 -17.04721,-9.3041 m 16.82266,13.04591 c -1.05928,-0.50709 -2.11071,-1.02246 -3.15364,-1.54586 -16.84466,-8.45368 -31.23501,-18.8704 -41.30299,-30.5233 -5.02897,-5.82064 -8.96896,-11.93252 -11.65492,-18.27118 -0.701,-1.65429 -1.31641,-3.32364 -1.84342,-5.00684 m 4.25071,12.92514 c -2.82916,-4.07894 -5.16046,-8.36204 -6.91637,-12.81058 -1.4775,-3.74321 -2.5457,-7.59833 -3.16559,-11.54992 m 183.45919,92.99266 c -22.71534,-0.27317 -45.50552,-1.31973 -65.3041,-2.89216 -5.03315,-0.39974 -9.92386,-0.83722 -14.63878,-1.31174 m 24.2775,-2.67632 c -1.77271,-0.24209 -3.53061,-0.49763 -5.27319,-0.76563 -23.71382,-3.64701 -45.81602,-9.80675 -63.98349,-16.39983 -0.94929,-0.3445 -1.89099,-0.69135 -2.82477,-1.04036 m 17.06426,0.69159 c -4.14202,-1.85515 -8.16105,-3.7575 -12.04958,-5.71627 -17.82392,-8.97846 -32.60087,-19.00342 -43.2991,-30.39474 -3.39027,-3.60992 -6.34657,-7.33362 -8.83595,-11.16716 m 12.00339,17.6203 c -1.17027,-1.14128 -2.286,-2.29881 -3.34637,-3.47119 -4.99357,-5.52104 -8.77338,-11.38648 -11.24043,-17.46679 -1.22484,-3.01874 -2.12829,-6.09569 -2.69546,-9.21632 m 96.50196,79.49579 -99.16344,-56.80126 m 13.13561,8.99377 -16.91243,-58.52869 m 40.90027,78.72258 -44.92677,-59.97647 m 252.51694,99.16788 -171.62734,-16.89736 m 72.30562,15.19377 -130.09596,-48.17088"
         style="fill:none;stroke:#000000;stroke-width:1.25;stroke-miterlimit:4;stroke-dasharray:none;stroke-opacity:1"
         id="path2987-4-4-7-6" />
      <path
         sodipodi:nodetypes="cc"
         inkscape:original-d="m 619.8222,358.69055 c -90.83751,0 -164.47586,-36.18761 -164.47586,-80.82729"
         inkscape:path-effect="#path-effect5320-7-8"
         inkscape:connector-curvature="0"
         d="m 616.34638,366.51843 c -19.58542,-1.08088 -39.05814,-3.09904 -57.52637,-6.63793 -7.82262,-1.49898 -15.36598,-3.25227 -22.57985,-5.28602 m 17.62354,-5.32553 c -18.8602,-4.3779 -35.11809,-9.88556 -48.70589,-16.59212 -5.93505,-2.92938 -11.34038,-6.07878 -16.18317,-9.43651 m 6.78481,13.6293 c -13.78333,-7.14598 -24.53237,-15.50581 -31.99538,-24.70943 -4.08067,-5.03242 -7.19141,-10.33537 -9.24339,-15.8388 -0.89203,-2.39241 -1.58502,-4.82543 -2.07082,-7.29465 m 160.77201,73.66024 c -18.66937,0.1692 -37.45621,-1.93204 -54.4696,-5.31814 -13.40665,-2.66827 -25.91713,-6.17177 -36.89,-10.18074 m 17.68883,-0.71281 c -15.52043,-4.2242 -28.71071,-9.34887 -39.77691,-15.42058 -12.96809,-7.11524 -22.99393,-15.53481 -29.76054,-24.9338 m 15.87096,20.39142 c -7.37307,-4.60916 -13.42937,-9.95586 -18.08037,-15.75609 -4.03059,-5.02651 -7.03867,-10.43357 -8.93527,-16.07998 -1.71163,-5.09573 -2.52902,-10.41597 -2.36708,-15.90257 m 153.78885,80.93376 c -21.45703,-0.30259 -40.52261,-2.71154 -57.43546,-6.81725 -4.74021,-1.15071 -9.31086,-2.43488 -13.71077,-3.84269 m 21.12977,-0.13512 c -0.45393,-0.0985 -0.90737,-0.19751 -1.36032,-0.29702 -19.3856,-4.25924 -37.64157,-9.40935 -53.51466,-15.67565 -4.47496,-1.76661 -8.74347,-3.61522 -12.78247,-5.54927 m 11.98156,8.22953 c -0.35014,-0.16664 -0.69902,-0.33449 -1.0466,-0.50353 -14.4725,-7.03812 -26.66598,-16.10536 -35.21449,-26.27146 -4.27991,-5.08977 -7.65709,-10.46306 -10.0028,-16.049 -1.24479,-2.96427 -2.19931,-5.98854 -2.84641,-9.06599 m 157.88936,70.36433 c -19.91118,0.4152 -38.36125,-1.47616 -54.6664,-4.48071 -11.39248,-2.09929 -22.04045,-4.80025 -31.59399,-7.80638 m 18.87868,8.20573 c -14.96698,-3.66891 -29.24333,-8.83187 -41.70631,-15.03137 -12.43667,-6.18642 -23.0279,-13.37781 -31.08673,-21.27335 m 10.96101,7.46954 c -7.7887,-5.07537 -14.57346,-10.92143 -19.91805,-17.27778 -4.13363,-4.91616 -7.40583,-10.13383 -9.66863,-15.57727 -0.91413,-2.19905 -1.66337,-4.4344 -2.23913,-6.70244 m 88.0563,74.88166 -90.90924,-52.07323 m 15.20052,11.53717 -15.39413,-53.27432 m 36.64909,70.48217 -41.03285,-54.77817 M 666.12974,364.87179 508.5396,349.35643 m 72.08754,15.20234 -119.37508,-44.20124"
         style="fill:none;stroke:#000000;stroke-width:2.11017;stroke-miterlimit:4;stroke-dasharray:none;stroke-opacity:1"
         id="path2987-4-4-7-6-3" />
    </g>
  </g>
</svg>
